<?xml version="1.0" encoding="UTF-8" standalone="no"?>
<!-- Created with Inkscape (http://www.inkscape.org/) -->

<svg
   xmlns:dc="http://purl.org/dc/elements/1.1/"
   xmlns:cc="http://creativecommons.org/ns#"
   xmlns:rdf="http://www.w3.org/1999/02/22-rdf-syntax-ns#"
   xmlns:svg="http://www.w3.org/2000/svg"
   xmlns="http://www.w3.org/2000/svg"
   xmlns:sodipodi="http://sodipodi.sourceforge.net/DTD/sodipodi-0.dtd"
   xmlns:inkscape="http://www.inkscape.org/namespaces/inkscape"
   width="744.09448819"
   height="1052.3622047"
   id="svg2"
   version="1.1"
   inkscape:version="0.48.0 r9654"
   sodipodi:docname="New document 1">
  <defs
     id="defs4" />
  <sodipodi:namedview
     id="base"
     pagecolor="#ffffff"
     bordercolor="#666666"
     borderopacity="1.0"
     inkscape:pageopacity="0.0"
     inkscape:pageshadow="2"
     inkscape:zoom="0.35"
     inkscape:cx="386.42857"
     inkscape:cy="520"
     inkscape:document-units="px"
     inkscape:current-layer="layer1"
     showgrid="false"
     inkscape:window-width="737"
     inkscape:window-height="644"
     inkscape:window-x="3"
     inkscape:window-y="47"
     inkscape:window-maximized="0" />
  <metadata
     id="metadata7">
    <rdf:RDF>
      <cc:Work
         rdf:about="">
        <dc:format>image/svg+xml</dc:format>
        <dc:type
           rdf:resource="http://purl.org/dc/dcmitype/StillImage" />
        <dc:title></dc:title>
      </cc:Work>
    </rdf:RDF>
  </metadata>
  <g
     inkscape:label="Layer 1"
     inkscape:groupmode="layer"
     id="layer1">
    <rect
       style="fill:#88c2e5;fill-opacity:1;stroke:none"
       id="rect3865"
       width="297.14288"
       height="282.85712"
       x="182.85715"
       y="386.64792" />
    <path
       sodipodi:type="arc"
       style="fill:#ffffff;fill-opacity:1;stroke:none;stroke-opacity:1"
       id="path2985-7"
       sodipodi:cx="362.85715"
       sodipodi:cy="455.21933"
       sodipodi:rx="34.285713"
       sodipodi:ry="102.85714"
       d="m 397.14286,455.21933 a 34.285713,102.85714 0 1 1 -68.57143,0 34.285713,102.85714 0 1 1 68.57143,0 z"
       transform="matrix(0,-1.44,1.2,0,-217.69177,1052.0193)" />
    <path
       sodipodi:type="arc"
       style="fill:#ffffff;fill-opacity:1;stroke:none;stroke-opacity:1"
       id="path2985-7-4"
       sodipodi:cx="362.85715"
       sodipodi:cy="455.21933"
       sodipodi:rx="34.285713"
       sodipodi:ry="102.85714"
       d="m 397.14286,455.21933 a 34.285713,102.85714 0 1 1 -68.57143,0 34.285713,102.85714 0 1 1 68.57143,0 z"
       transform="matrix(1.2470766,-0.72,-0.6,-1.0392305,149.19233,1263.84)" />
    <path
       sodipodi:type="arc"
       style="fill:#ffffff;fill-opacity:1;stroke:none;stroke-opacity:1"
       id="path2985-7-45"
       sodipodi:cx="362.85715"
       sodipodi:cy="455.21933"
       sodipodi:rx="34.285713"
       sodipodi:ry="102.85714"
       d="m 397.14286,455.21933 a 34.285713,102.85714 0 1 1 -68.57143,0 34.285713,102.85714 0 1 1 68.57143,0 z"
       transform="matrix(-1.2470766,-0.72,0.6,-1.0392305,507.95047,1263.84)" />
    <path
       sodipodi:type="arc"
       style="fill:#aa1224;fill-opacity:1;stroke:none"
       id="path2985"
       sodipodi:cx="362.85715"
       sodipodi:cy="455.21933"
       sodipodi:rx="34.285713"
       sodipodi:ry="102.85714"
       d="m 397.14286,455.21933 a 34.285713,102.85714 0 1 1 -68.57143,0 34.285713,102.85714 0 1 1 68.57143,0 z"
       transform="matrix(0,-1,1,0,-126.6479,892.36219)" />
    <path
       sodipodi:type="arc"
       style="fill:#aa1224;fill-opacity:1;stroke:none"
       id="path2985-4"
       sodipodi:cx="362.85715"
       sodipodi:cy="455.21933"
       sodipodi:rx="34.285713"
       sodipodi:ry="102.85714"
       d="m 397.14286,455.21933 a 34.285713,102.85714 0 1 1 -68.57143,0 34.285713,102.85714 0 1 1 68.57143,0 z"
       transform="matrix(-0.8660254,-0.5,0.5,-0.8660254,415.20527,1105.1651)" />
    <path
       sodipodi:type="arc"
       style="fill:#aa1224;fill-opacity:1;stroke:none"
       id="path2985-76"
       sodipodi:cx="362.85715"
       sodipodi:cy="455.21933"
       sodipodi:rx="34.285713"
       sodipodi:ry="102.85714"
       d="m 397.14286,455.21933 a 34.285713,102.85714 0 1 1 -68.57143,0 34.285713,102.85714 0 1 1 68.57143,0 z"
       transform="matrix(0.8660254,-0.5,-0.5,-0.8660254,241.93753,1105.1651)" />
  </g>
</svg>
